<?xml version="1.0" encoding="utf-8"?>
<!-- Generator: Adobe Illustrator 18.0.0, SVG Export Plug-In . SVG Version: 6.00 Build 0)  -->
<!DOCTYPE svg PUBLIC "-//W3C//DTD SVG 1.1//EN" "http://www.w3.org/Graphics/SVG/1.1/DTD/svg11.dtd">
<svg version="1.1" id="_x3C_white_x3E__x5F_复制" xmlns="http://www.w3.org/2000/svg" xmlns:xlink="http://www.w3.org/1999/xlink"
	 x="0px" y="0px" viewBox="0 0 1024 1024" enable-background="new 0 0 1024 1024" xml:space="preserve">
<g id="_x3C_white_x3E__25_">
	<g>
		<path fill="#FFFFFF" d="M891,982.2l-6.4-8.9c-30.6-42.5-58.2-50.9-199.2-78.9c-46.2-9.2-82.3-22.2-107.3-38.8
			c-26.1-17.3-32.9-34-34.5-42.4c-1.1-5.6-1.1-21.2-0.8-33.4c0.3-16.2-13.9-33.8-38-47c-12.7-6.9-34.8-15-62.9-25.1
			c-36.7-13.3-82.4-29.9-134-53.4c-117.7-53.7-131.2-76.7-132.4-79.2l-0.9-2L347.7,85.8l5.5,11.8c2.6,5.5,12.9,20.9,52.8,43.8
			c35.8,20.6,86.1,41.7,145.5,61c118.6,38.6,153,67.1,141.5,117.3c-0.5,2.1-0.8,3.5-1,4.4c-0.3,1.6-1,4.7-2.1,10.4
			c-3.1,14.9,1,31.3,12,47.7c22.8,33.9,69.4,60.3,124.7,70.5c175,32.2,188.6,96.3,189.1,99.1l0.2,1.2l-0.4,1.2L891,982.2z
			 M186.2,572c5.1,6,28.9,28.2,126.1,72.6c51.2,23.4,96.6,39.9,133.2,53.1c28.5,10.3,51,18.5,64.4,25.8c27.7,15.1,44,36.3,43.6,56.6
			c-0.3,15.8-0.1,27.7,0.6,31.1c4.7,23.3,42.2,54.7,133.4,72.8c133,26.4,168.6,36.4,199.3,74.6l118.1-406
			c-1.2-3.6-6.5-16.6-26.5-32.3c-22-17.2-66.5-41.2-153.7-57.2c-58.1-10.7-107.3-38.7-131.7-75c-12.6-18.8-17.3-38.1-13.6-55.8
			c0.8-3.8,1.4-6.5,1.7-8.3c0-1.6,0.5-3.2,0.9-4.2c0.2-0.7,0.4-1.5,0.6-2.5c5.1-22.2-0.2-37.4-18.4-52.5
			c-19.9-16.5-55.7-32.6-116-52.3c-117.3-38.2-177.7-75.4-198.4-100.8L186.2,572z"/>
	</g>
	<g>
		
			<rect x="610.6" y="331.1" transform="matrix(0.9583 0.2859 -0.2859 0.9583 186.9881 -152.3896)" fill="#FFFFFF" width="9.6" height="466.2"/>
	</g>
	<g>
		<g>
			<path fill="#FFFFFF" d="M376.8,217.3c-8.4,25.8-16.9,51.7-25.5,77.7c-20.7-12.4-40.7-26.8-59.5-44.3
				c8.7-25.8,17.3-51.4,25.8-76.8C336.4,191.1,356.2,205.2,376.8,217.3z"/>
		</g>
		<g>
			<path fill="#FFFFFF" d="M465.3,171.8c-8.2,25.5-16.3,51.2-24.6,77c-21.8-9.2-43.2-19.3-63.9-31.5c8.4-25.6,16.7-51.1,25-76.4
				C422.4,152.9,443.6,162.9,465.3,171.8z"/>
		</g>
		<g>
			<path fill="#FFFFFF" d="M325.4,374.2c-8.7,26.7-17.5,53.5-26.4,80.5c-21-12.9-41.2-28-60.2-46.2c9-26.7,17.9-53.2,26.7-79.6
				C284.5,346.8,304.6,361.5,325.4,374.2z"/>
		</g>
		<g>
			<path fill="#FFFFFF" d="M598,222.1c-7.8,25.9-15.7,52-23.6,78.2c-22.2-9.3-44.7-17.6-67.1-25.8c8.1-26,16.1-51.9,24.1-77.6
				C553.6,204.9,575.9,213,598,222.1z"/>
		</g>
		<g>
			<path fill="#FFFFFF" d="M693.5,290.1c-7.6,26.4-14.9,54.1-22.6,80.8c-5.3-17.3-9.1-25.5-30.7-38.2c7.8-26.5,15.5-52.8,23.2-78.9
				C684.9,266.2,686.6,274.6,693.5,290.1z"/>
		</g>
		<g>
			<path fill="#FFFFFF" d="M272.2,536.6c-9.1,27.7-18.2,55.5-27.3,83.5c-21.3-13.5-41.7-29.2-60.9-48.1
				c9.3-27.7,18.5-55.1,27.7-82.5C230.8,508,251.1,523.4,272.2,536.6z"/>
		</g>
		<g>
			<path fill="#FFFFFF" d="M406.3,599.1c-8.7,28.1-17.5,56.4-26.4,84.9c-23.2-9.2-46.3-18.4-69-28.7c9-28.2,18-56.3,26.9-84.2
				C360.4,581.1,383.3,590.1,406.3,599.1z"/>
		</g>
		<g>
			<path fill="#FFFFFF" d="M647,450.8c-7.9,27.3-15.9,54.8-23.9,82.5c-5.1-16.5-8.6-25.3-30.5-38.6c8.1-27.4,16.1-54.7,24-81.7
				C638.4,426,640.4,432.4,647,450.8z"/>
		</g>
		<g>
			<path fill="#FFFFFF" d="M598.8,617.4c-8.2,28.4-17.4,55.1-25.7,83.8c-5.9-19.7-6.5-28.2-28.7-42c8.4-28.4,15.5-53.1,23.8-81.2
				C590.1,591.5,592.6,599.1,598.8,617.4z"/>
		</g>
		<g>
			<path fill="#FFFFFF" d="M544.3,659.2c-8.4,28.6-14,46.7-22.5,75.6c-22.3-14.1-47.1-18.5-70.2-29c8.7-28.7,15.3-50.1,23.8-78.4
				C498.4,637.6,522.2,645.4,544.3,659.2z"/>
		</g>
		<g>
			<path fill="#FFFFFF" d="M500.8,543.4c-8.4,27.8-16.9,55.8-25.4,84c-22.9-10.2-46-19.3-69.1-28.3c8.7-27.9,17.3-55.7,25.9-83.3
				C455.1,524.5,478.1,533.4,500.8,543.4z"/>
		</g>
		<g>
			<path fill="#FFFFFF" d="M457.7,433.9c-8.4,27.1-16.9,54.4-25.4,81.9c-22.8-8.8-45.6-17.6-68-27.4c8.7-27.2,17.3-54.3,25.9-81.2
				C412.4,416.7,435,425.3,457.7,433.9z"/>
		</g>
		<g>
			<path fill="#FFFFFF" d="M507.2,274.5c-8.1,26.2-16.3,52.5-24.6,79c-22.5-8.4-45-16.8-67-26.2c8.4-26.3,16.7-52.4,25-78.4
				C462.6,258.1,484.9,266.3,507.2,274.5z"/>
		</g>
		<g>
			<path fill="#FFFFFF" d="M415.7,327.3c-8.4,26.4-16.9,53-25.5,79.8c-22.1-9.6-43.8-20.2-64.8-32.9c8.7-26.5,17.3-52.9,25.9-79.1
				C372.1,307.5,393.7,317.9,415.7,327.3z"/>
		</g>
		<g>
			<path fill="#FFFFFF" d="M364.3,488.3c-8.7,27.4-17.5,55-26.4,82.7c-22.4-10-44.4-21.1-65.6-34.4c9-27.5,18-54.8,26.8-82
				C320.1,467.7,342,478.5,364.3,488.3z"/>
		</g>
		<g>
			<path fill="#FFFFFF" d="M640.2,332.7c-7.8,26.6-15.7,53.4-23.6,80.3c-21.7-12.9-43.9-23.6-66.3-33.1
				c8.1-26.7,16.1-53.2,24.1-79.6C596.6,309.6,618.7,320.1,640.2,332.7z"/>
		</g>
		<g>
			<path fill="#FFFFFF" d="M550.3,379.9c-8.1,26.8-16.3,53.8-24.5,81c-22.5-9.8-45.4-18.4-68.1-27c8.4-27,16.7-53.8,25-80.4
				C505.2,361.9,527.9,370.3,550.3,379.9z"/>
		</g>
		<g>
			<path fill="#FFFFFF" d="M592.6,494.8c-8.1,27.6-16.3,55.3-24.5,83.3c-22-13.4-44.5-24.6-67.3-34.6c8.4-27.7,16.7-55.2,24.9-82.5
				C548.4,470.7,570.8,481.6,592.6,494.8z"/>
		</g>
	</g>
	<g>
		<g>
			<path fill="#FFFFFF" d="M726.1,492.6c-7.5,24.6-15,49.4-22.6,74.1c-18.2-11.2-35.4-26.1-51.1-46.7l22.5-74.9
				C690.7,466,707.9,481.2,726.1,492.6z"/>
		</g>
		<g>
			<path fill="#FFFFFF" d="M806.4,453.6c-7.3,24.3-11.6,41-19,65.4c-21.1-6.1-41.8-14.1-61.4-26.4c7.5-24.6,12.2-40.6,19.7-65
				C765.2,440,785.5,447.3,806.4,453.6z"/>
		</g>
		<g>
			<path fill="#FFFFFF" d="M680.8,641.5c-7.6,25.1-15.3,50.2-23,75.4c-18.1-10.7-35.3-25.2-51-45.2l22.9-76.2
				C645.4,615.9,662.6,630.5,680.8,641.5z"/>
		</g>
		<g>
			<path fill="#FFFFFF" d="M930.9,486.1c-7,23.8-12.1,41.2-19.1,65.1c-19.7-7.6-40.3-12.6-61.1-17.2c7.2-24.1,12.4-43.5,19.5-67.6
				C891,471.3,911.4,478.3,930.9,486.1z"/>
		</g>
		<g>
			<path fill="#FFFFFF" d="M1010.4,552.7c-6.8,23.5-13.5,47.1-20.3,70.7c-3.5-17.5-5.7-25.6-22.7-40.3c6.9-23.7,11.6-42.1,18.4-65.6
				C1002.6,532.4,1005.6,536.1,1010.4,552.7z"/>
		</g>
		<g>
			<path fill="#FFFFFF" d="M634.6,793c-7.8,25.5-15.6,51.1-23.4,76.7c-20.5-11.6-54.4-30.8-54.4-30.8s18.3-63.3,26.2-88.8
				C600.3,773.6,614.3,781.2,634.6,793z"/>
		</g>
		<g>
			<path fill="#FFFFFF" d="M693.1,384.3c-7.4,24.6-10.9,36.5-18.3,61.2c-8.7-8.9-10.7-16.2-16.8-34.5l21.8-60.7
				C685.9,368.9,684.4,375.2,693.1,384.3z"/>
		</g>
		<g>
			<path fill="#FFFFFF" d="M652.4,520.1c-7.5,25-15.1,50.6-22.6,75.7c-7.2-8.2-13.7-15.2-17.6-34.7l22.5-69.9
				C639.5,507.6,644.2,511.6,652.4,520.1z"/>
		</g>
		<g>
			<path fill="#FFFFFF" d="M606.8,671.7c-7.7,25.4-16.1,53.2-23.8,78.8c-10-9.1-20.5-16.3-14.5-44.7c3.4-16.3,12-38.5,19.7-64
				C594.2,658.6,598.3,664.9,606.8,671.7z"/>
		</g>
		<g>
			<path fill="#FFFFFF" d="M763.2,829c-7.4,25-14.9,50.1-22.3,75.3c-21.9-3.3-43-10.2-64.8-15.1c7.6-25.4,14.2-46.8,21.8-72.1
				C719.5,822.2,741.5,825.4,763.2,829z"/>
		</g>
		<g>
			<path fill="#FFFFFF" d="M969.6,694.7c-6.9,23.9-13.7,47.9-20.7,71.9c-3.5-16.2-5.8-25.7-23.1-40c7-24.1,13.9-48.1,20.8-72
				C963.8,669.1,965.1,676.2,969.6,694.7z"/>
		</g>
		<g>
			<path fill="#FFFFFF" d="M928.1,839.1c-7,24.3-14,48.6-21,73.1c-4.1-18.7-5.9-25.7-23.5-39.7c7.1-24.5,14.1-48.9,21.2-73.2
				C922.2,813.4,923.8,821.3,928.1,839.1z"/>
		</g>
		<g>
			<path fill="#FFFFFF" d="M883.6,872.5c-7.1,24.5-14.2,49.2-21.4,73.8c-17.9-13.5-37.4-22.4-57.7-28.7
				c7.3-24.9,14.6-49.7,21.8-74.5C846.6,849.6,865.9,858.7,883.6,872.5z"/>
		</g>
		<g>
			<path fill="#FFFFFF" d="M848,769.2c-7.2,24.6-14.4,49.2-21.6,73.9c-20.3-6.6-41.6-10.6-63.2-14.1c7.4-25,14.8-49.9,22.2-74.7
				C806.7,758.1,827.8,762.4,848,769.2z"/>
		</g>
		<g>
			<path fill="#FFFFFF" d="M807.3,680.2c-7.3,24.6-14.6,49.3-22,74.1c-21.5-3.9-43.4-7.3-64.8-12.7c7.5-25,15-50,22.5-74.8
				C764.3,672.4,786,676.1,807.3,680.2z"/>
		</g>
		<g>
			<path fill="#FFFFFF" d="M850.8,534c-7.2,24.2-14.4,48.5-21.6,72.8c-21.2-4.4-42.7-8.4-63.8-14.2c7.4-24.6,14.8-49.1,22.1-73.6
				C808.4,525.1,829.7,529.3,850.8,534z"/>
		</g>
		<g>
			<path fill="#FFFFFF" d="M765.4,592.6c-7.4,24.7-14.8,49.4-22.3,74.2c-21.4-5.7-42.4-13.3-62.3-25.3c7.6-25,15.2-49.9,22.8-74.8
				C723.3,578.9,744.1,586.7,765.4,592.6z"/>
		</g>
		<g>
			<path fill="#FFFFFF" d="M720.6,741.6c-7.5,25.1-15.1,50.2-22.7,75.4c-21.8-5.2-43.1-12.4-63.3-24.1c7.7-25.4,15.5-50.8,23.2-76
				C677.8,728.8,699,736.2,720.6,741.6z"/>
		</g>
		<g>
			<path fill="#FFFFFF" d="M967.3,583.1c-6.9,23.8-13.8,47.6-20.7,71.5c-17.4-14.3-36.2-24.1-55.9-31.3
				c7.1-24.1,14.1-48.1,21.1-72.1C931.4,558.7,950.1,568.7,967.3,583.1z"/>
		</g>
		<g>
			<path fill="#FFFFFF" d="M890.8,623.3c-7.1,24.2-14.2,48.4-21.3,72.7c-20-7.1-40.9-11.6-62.1-15.7c7.3-24.5,14.5-49,21.8-73.4
				C850.2,611.2,870.9,615.9,890.8,623.3z"/>
		</g>
		<g>
			<path fill="#FFFFFF" d="M925.8,726.6c-7,24.1-14,48.4-21,72.6c-17.6-13.9-36.8-23.2-56.8-30c7.2-24.5,14.3-48.9,21.5-73.3
				C889.4,703,908.3,712.5,925.8,726.6z"/>
		</g>
	</g>
	<g>
		<path fill="#FFFFFF" d="M360.3,0.5c-17.2-0.2-31.3,13.6-31.5,30.8c-0.1,7.5,2.5,14.4,6.8,19.8L8.3,1010.4
			c-1.2,3.2,4.7,8.1,13.2,10.9c8.5,2.9,16.3,2.9,17.6-0.3c0-0.1,327.3-958.9,327.3-958.9c14-2.9,24.6-15.2,24.8-30.1
			C391.3,14.8,377.5,0.7,360.3,0.5z M32.1,1010.4l-11.3-3.9l145-427.5l11.3,3.9L32.1,1010.4z M360.4,51.6c-0.7,0-1.4,0-2-0.1
			L342.8,98l-11.3-3.9l15.4-46.2c-4.8-3.9-7.8-9.8-7.7-16.4c0.1-11.5,9.6-20.8,21.1-20.7c11.5,0.1,20.8,9.6,20.7,21.1
			C380.7,43.4,372,51.7,360.4,51.6z"/>
	</g>
	<g>
		<path fill="#FFFFFF" d="M357.4,62.6c-6.8-8.3-15-5.5-15.9-5.1l-3.9-9.9c5.5-2.2,18.6-3.3,28.1,8.3L357.4,62.6z"/>
	</g>
	<g>
		<path fill="#FFFFFF" d="M342.2,104.9c-6.8-8.3-15-5.5-15.9-5.1l-3.9-9.9c5.5-2.2,18.6-3.3,28.1,8.3L342.2,104.9z"/>
	</g>
	<g>
		<path fill="#FFFFFF" d="M176.8,588.8c-6.8-8.3-15-5.5-15.9-5.1l-3.9-9.9c5.5-2.2,18.6-3.3,28.1,8.3L176.8,588.8z"/>
	</g>
	<g>
		<path fill="#FFFFFF" d="M29.9,1022.2c-6.8-8.3-15-5.5-15.9-5.1l-3.9-9.9c5.5-2.2,18.6-3.3,28.1,8.3L29.9,1022.2z"/>
	</g>
	<g>
		<line fill="#FFFFFF" x1="42" y1="1012.6" x2="42" y2="1012.5"/>
	</g>
</g>
</svg>
